<?xml version="1.0" encoding="UTF-8" standalone="no"?>
<!DOCTYPE svg PUBLIC "-//W3C//DTD SVG 1.1//EN"
 "http://www.w3.org/Graphics/SVG/1.1/DTD/svg11.dtd">
<!-- Generated by graphviz version 2.40.1 (0)
 -->
<!-- Title: CFG of foo Pages: 1 -->
<svg width="251pt" height="502pt"
 viewBox="0.00 0.00 251.00 502.00" xmlns="http://www.w3.org/2000/svg" xmlns:xlink="http://www.w3.org/1999/xlink">
<g id="graph0" class="graph" transform="scale(1 1) rotate(0) translate(4 498)">
<title>CFG of foo</title>
<polygon fill="#ffffff" stroke="transparent" points="-4,4 -4,-498 247,-498 247,4 -4,4"/>
<!-- 0x55d9e74e9da0 -->
<g id="node1" class="node">
<title>0x55d9e74e9da0</title>
<path fill="#90ee90" stroke="#000000" stroke-width="2" d="M124,-494C124,-494 17,-494 17,-494 11,-494 5,-488 5,-482 5,-482 5,-432 5,-432 5,-426 11,-420 17,-420 17,-420 124,-420 124,-420 130,-420 136,-426 136,-432 136,-432 136,-482 136,-482 136,-488 130,-494 124,-494"/>
<text text-anchor="start" x="13" y="-482" font-family="Courier,monospace" font-size="10.00" fill="#000000">entry:</text>
<text text-anchor="start" x="13" y="-471" font-family="Courier,monospace" font-size="10.00" fill="#000000"> &#160;%v = alloca</text>
<text text-anchor="start" x="13" y="-460" font-family="Courier,monospace" font-size="10.00" fill="#000000"> &#160;%v = alloca</text>
<text text-anchor="start" x="13" y="-449" font-family="Courier,monospace" font-size="10.00" fill="#000000"> &#160;%v = alloca</text>
<text text-anchor="start" x="13" y="-438" font-family="Courier,monospace" font-size="10.00" fill="#000000"> &#160;... (6 more)</text>
<text text-anchor="start" x="13" y="-427" font-family="Courier,monospace" font-size="10.00" fill="#000000"> &#160;br %8 ? ... : ...</text>
</g>
<!-- 0x55d9e74e9df0 -->
<g id="node2" class="node">
<title>0x55d9e74e9df0</title>
<path fill="#add8e6" stroke="#000000" d="M77,-320C77,-320 18,-320 18,-320 12,-320 6,-314 6,-308 6,-308 6,-269 6,-269 6,-263 12,-257 18,-257 18,-257 77,-257 77,-257 83,-257 89,-263 89,-269 89,-269 89,-308 89,-308 89,-314 83,-320 77,-320"/>
<text text-anchor="start" x="14" y="-308" font-family="Courier,monospace" font-size="10.00" fill="#000000">BB1:</text>
<text text-anchor="start" x="14" y="-297" font-family="Courier,monospace" font-size="10.00" fill="#000000"> &#160;%v = load</text>
<text text-anchor="start" x="14" y="-286" font-family="Courier,monospace" font-size="10.00" fill="#000000"> &#160;%v = sub</text>
<text text-anchor="start" x="14" y="-275" font-family="Courier,monospace" font-size="10.00" fill="#000000"> &#160;store</text>
<text text-anchor="start" x="14" y="-264" font-family="Courier,monospace" font-size="10.00" fill="#000000"> &#160;br ...</text>
</g>
<!-- 0x55d9e74e9da0&#45;&gt;0x55d9e74e9df0 -->
<g id="edge1" class="edge">
<title>0x55d9e74e9da0&#45;&gt;0x55d9e74e9df0</title>
<path fill="none" stroke="#00ff00" d="M65.3956,-419.6044C61.7811,-393.1248 56.9308,-357.5909 53.1915,-330.1965"/>
<polygon fill="#00ff00" stroke="#00ff00" points="56.6381,-329.5665 51.8177,-320.1317 49.7024,-330.5133 56.6381,-329.5665"/>
<text text-anchor="middle" x="66.5" y="-394.8" font-family="Courier,monospace" font-size="9.00" fill="#000000">T</text>
</g>
<!-- 0x55d9e74e9d50 -->
<g id="node3" class="node">
<title>0x55d9e74e9d50</title>
<path fill="#add8e6" stroke="#000000" d="M142,-374C142,-374 101,-374 101,-374 95,-374 89,-368 89,-362 89,-362 89,-350 89,-350 89,-344 95,-338 101,-338 101,-338 142,-338 142,-338 148,-338 154,-344 154,-350 154,-350 154,-362 154,-362 154,-368 148,-374 142,-374"/>
<text text-anchor="start" x="97" y="-359" font-family="Courier,monospace" font-size="10.00" fill="#000000">BB2:</text>
<text text-anchor="start" x="97" y="-348" font-family="Courier,monospace" font-size="10.00" fill="#000000"> &#160;br ...</text>
</g>
<!-- 0x55d9e74e9da0&#45;&gt;0x55d9e74e9d50 -->
<g id="edge2" class="edge">
<title>0x55d9e74e9da0&#45;&gt;0x55d9e74e9d50</title>
<path fill="none" stroke="#ff0000" d="M89.2009,-419.9648C95.3752,-407.7373 102.1233,-394.3736 107.8472,-383.0378"/>
<polygon fill="#ff0000" stroke="#ff0000" points="110.9962,-384.5664 112.3795,-374.0622 104.7477,-381.4111 110.9962,-384.5664"/>
<text text-anchor="middle" x="105.5" y="-394.8" font-family="Courier,monospace" font-size="9.00" fill="#000000">F</text>
</g>
<!-- 0x55d9e74e9cb0 -->
<g id="node7" class="node">
<title>0x55d9e74e9cb0</title>
<path fill="#f08080" stroke="#000000" d="M71,-41C71,-41 12,-41 12,-41 6,-41 0,-35 0,-29 0,-29 0,-12 0,-12 0,-6 6,0 12,0 12,0 71,0 71,0 77,0 83,-6 83,-12 83,-12 83,-29 83,-29 83,-35 77,-41 71,-41"/>
<text text-anchor="start" x="8" y="-29" font-family="Courier,monospace" font-size="10.00" fill="#000000">BB6:</text>
<text text-anchor="start" x="8" y="-18" font-family="Courier,monospace" font-size="10.00" fill="#000000"> &#160;%v = load</text>
<text text-anchor="start" x="8" y="-7" font-family="Courier,monospace" font-size="10.00" fill="#000000"> &#160;ret %22</text>
</g>
<!-- 0x55d9e74e9df0&#45;&gt;0x55d9e74e9cb0 -->
<g id="edge3" class="edge">
<title>0x55d9e74e9df0&#45;&gt;0x55d9e74e9cb0</title>
<path fill="none" stroke="#000000" d="M46.7941,-256.9689C45.6344,-205.1685 43.3402,-102.6937 42.1906,-51.3448"/>
<polygon fill="#000000" stroke="#000000" points="45.6865,-51.1193 41.9634,-41.2002 38.6882,-51.276 45.6865,-51.1193"/>
</g>
<!-- 0x55d9e74ecb90 -->
<g id="node4" class="node">
<title>0x55d9e74ecb90</title>
<path fill="#add8e6" stroke="#000000" d="M183,-239C183,-239 70,-239 70,-239 64,-239 58,-233 58,-227 58,-227 58,-199 58,-199 58,-193 64,-187 70,-187 70,-187 183,-187 183,-187 189,-187 195,-193 195,-199 195,-199 195,-227 195,-227 195,-233 189,-239 183,-239"/>
<text text-anchor="start" x="66" y="-227" font-family="Courier,monospace" font-size="10.00" fill="#000000">BB3:</text>
<text text-anchor="start" x="66" y="-216" font-family="Courier,monospace" font-size="10.00" fill="#000000"> &#160;%v = load</text>
<text text-anchor="start" x="66" y="-205" font-family="Courier,monospace" font-size="10.00" fill="#000000"> &#160;%v = icmp sgt</text>
<text text-anchor="start" x="66" y="-194" font-family="Courier,monospace" font-size="10.00" fill="#000000"> &#160;br %15 ? ... : ...</text>
</g>
<!-- 0x55d9e74e9d50&#45;&gt;0x55d9e74ecb90 -->
<g id="edge4" class="edge">
<title>0x55d9e74e9d50&#45;&gt;0x55d9e74ecb90</title>
<path fill="none" stroke="#000000" d="M122.1333,-337.889C122.9069,-315.7641 124.2345,-277.7932 125.2233,-249.5132"/>
<polygon fill="#000000" stroke="#000000" points="128.7322,-249.3186 125.5838,-239.2024 121.7364,-249.074 128.7322,-249.3186"/>
</g>
<!-- 0x55d9e74ecd50 -->
<g id="node5" class="node">
<title>0x55d9e74ecd50</title>
<path fill="#add8e6" stroke="#000000" d="M130,-141C130,-141 71,-141 71,-141 65,-141 59,-135 59,-129 59,-129 59,-90 59,-90 59,-84 65,-78 71,-78 71,-78 130,-78 130,-78 136,-78 142,-84 142,-90 142,-90 142,-129 142,-129 142,-135 136,-141 130,-141"/>
<text text-anchor="start" x="67" y="-129" font-family="Courier,monospace" font-size="10.00" fill="#000000">BB4:</text>
<text text-anchor="start" x="67" y="-118" font-family="Courier,monospace" font-size="10.00" fill="#000000"> &#160;%v = load</text>
<text text-anchor="start" x="67" y="-107" font-family="Courier,monospace" font-size="10.00" fill="#000000"> &#160;%v = add</text>
<text text-anchor="start" x="67" y="-96" font-family="Courier,monospace" font-size="10.00" fill="#000000"> &#160;store</text>
<text text-anchor="start" x="67" y="-85" font-family="Courier,monospace" font-size="10.00" fill="#000000"> &#160;br ...</text>
</g>
<!-- 0x55d9e74ecb90&#45;&gt;0x55d9e74ecd50 -->
<g id="edge5" class="edge">
<title>0x55d9e74ecb90&#45;&gt;0x55d9e74ecd50</title>
<path fill="none" stroke="#00ff00" d="M112.0188,-186.6C109.452,-180.9362 107.0936,-174.8823 105.5,-169 103.9545,-163.2953 102.8494,-157.1802 102.0652,-151.1206"/>
<polygon fill="#00ff00" stroke="#00ff00" points="105.5348,-150.6455 101.0272,-141.0573 98.5717,-151.3637 105.5348,-150.6455"/>
<text text-anchor="middle" x="108.5" y="-161.8" font-family="Courier,monospace" font-size="9.00" fill="#000000">T</text>
</g>
<!-- 0x55d9e74ecda0 -->
<g id="node6" class="node">
<title>0x55d9e74ecda0</title>
<path fill="#add8e6" stroke="#000000" d="M231,-135.5C231,-135.5 172,-135.5 172,-135.5 166,-135.5 160,-129.5 160,-123.5 160,-123.5 160,-95.5 160,-95.5 160,-89.5 166,-83.5 172,-83.5 172,-83.5 231,-83.5 231,-83.5 237,-83.5 243,-89.5 243,-95.5 243,-95.5 243,-123.5 243,-123.5 243,-129.5 237,-135.5 231,-135.5"/>
<text text-anchor="start" x="168" y="-123.5" font-family="Courier,monospace" font-size="10.00" fill="#000000">BB5:</text>
<text text-anchor="start" x="168" y="-112.5" font-family="Courier,monospace" font-size="10.00" fill="#000000"> &#160;%v = load</text>
<text text-anchor="start" x="168" y="-101.5" font-family="Courier,monospace" font-size="10.00" fill="#000000"> &#160;store</text>
<text text-anchor="start" x="168" y="-90.5" font-family="Courier,monospace" font-size="10.00" fill="#000000"> &#160;br ...</text>
</g>
<!-- 0x55d9e74ecb90&#45;&gt;0x55d9e74ecda0 -->
<g id="edge6" class="edge">
<title>0x55d9e74ecb90&#45;&gt;0x55d9e74ecda0</title>
<path fill="none" stroke="#ff0000" d="M145.4257,-186.8826C154.841,-173.8894 166.3462,-158.0122 176.4794,-144.0285"/>
<polygon fill="#ff0000" stroke="#ff0000" points="179.5467,-145.7603 182.5804,-135.6091 173.8785,-141.6529 179.5467,-145.7603"/>
<text text-anchor="middle" x="166.5" y="-161.8" font-family="Courier,monospace" font-size="9.00" fill="#000000">F</text>
</g>
<!-- 0x55d9e74ecd50&#45;&gt;0x55d9e74ecb90 -->
<g id="edge7" class="edge">
<title>0x55d9e74ecd50&#45;&gt;0x55d9e74ecb90</title>
<path fill="none" stroke="#000000" d="M108.451,-141.151C111.2969,-152.4799 114.525,-165.3303 117.4564,-176.9996"/>
<polygon fill="#000000" stroke="#000000" points="114.1081,-178.0367 119.9391,-186.8826 120.8972,-176.3312 114.1081,-178.0367"/>
</g>
<!-- 0x55d9e74ecda0&#45;&gt;0x55d9e74e9cb0 -->
<g id="edge8" class="edge">
<title>0x55d9e74ecda0&#45;&gt;0x55d9e74e9cb0</title>
<path fill="none" stroke="#000000" d="M160.7335,-83.4427C157.6264,-81.5718 154.5238,-79.7391 151.5,-78 132.2363,-66.921 110.6426,-55.4373 91.722,-45.6727"/>
<polygon fill="#000000" stroke="#000000" points="93.1652,-42.4793 82.6704,-41.0265 89.9686,-48.7068 93.1652,-42.4793"/>
</g>
</g>
</svg>
