<?xml version="1.0" encoding="UTF-8" standalone="no"?>
<!DOCTYPE svg PUBLIC "-//W3C//DTD SVG 1.1//EN"
 "http://www.w3.org/Graphics/SVG/1.1/DTD/svg11.dtd">
<!-- Generated by graphviz version 2.40.1 (0)
 -->
<!-- Title: CFG of main Pages: 1 -->
<svg width="121pt" height="82pt"
 viewBox="0.00 0.00 121.00 82.00" xmlns="http://www.w3.org/2000/svg" xmlns:xlink="http://www.w3.org/1999/xlink">
<g id="graph0" class="graph" transform="scale(1 1) rotate(0) translate(4 78)">
<title>CFG of main</title>
<polygon fill="#ffffff" stroke="transparent" points="-4,4 -4,-78 117,-78 117,4 -4,4"/>
<!-- 0x55d9e74edf10 -->
<g id="node1" class="node">
<title>0x55d9e74edf10</title>
<path fill="#90ee90" stroke="#000000" stroke-width="2" d="M101,-74C101,-74 12,-74 12,-74 6,-74 0,-68 0,-62 0,-62 0,-12 0,-12 0,-6 6,0 12,0 12,0 101,0 101,0 107,0 113,-6 113,-12 113,-12 113,-62 113,-62 113,-68 107,-74 101,-74"/>
<text text-anchor="start" x="8" y="-62" font-family="Courier,monospace" font-size="10.00" fill="#000000">entry:</text>
<text text-anchor="start" x="8" y="-51" font-family="Courier,monospace" font-size="10.00" fill="#000000"> &#160;%v = alloca</text>
<text text-anchor="start" x="8" y="-40" font-family="Courier,monospace" font-size="10.00" fill="#000000"> &#160;store</text>
<text text-anchor="start" x="8" y="-29" font-family="Courier,monospace" font-size="10.00" fill="#000000"> &#160;%v = call @foo</text>
<text text-anchor="start" x="8" y="-18" font-family="Courier,monospace" font-size="10.00" fill="#000000"> &#160;... (1 more)</text>
<text text-anchor="start" x="8" y="-7" font-family="Courier,monospace" font-size="10.00" fill="#000000"> &#160;ret 0</text>
</g>
</g>
</svg>
