<?xml version="1.0" encoding="UTF-8" standalone="no"?>
<!DOCTYPE svg PUBLIC "-//W3C//DTD SVG 1.1//EN"
 "http://www.w3.org/Graphics/SVG/1.1/DTD/svg11.dtd">
<!-- Generated by graphviz version 2.40.1 (0)
 -->
<!-- Title: CFG of depth_expand Pages: 1 -->
<svg width="305pt" height="573pt"
 viewBox="0.00 0.00 305.00 573.00" xmlns="http://www.w3.org/2000/svg" xmlns:xlink="http://www.w3.org/1999/xlink">
<g id="graph0" class="graph" transform="scale(1 1) rotate(0) translate(4 569)">
<title>CFG of depth_expand</title>
<polygon fill="#ffffff" stroke="transparent" points="-4,4 -4,-569 301,-569 301,4 -4,4"/>
<!-- 0x5638249ede90 -->
<g id="node1" class="node">
<title>0x5638249ede90</title>
<path fill="#90ee90" stroke="#000000" stroke-width="2" d="M137,-565C137,-565 24,-565 24,-565 18,-565 12,-559 12,-553 12,-553 12,-503 12,-503 12,-497 18,-491 24,-491 24,-491 137,-491 137,-491 143,-491 149,-497 149,-503 149,-503 149,-553 149,-553 149,-559 143,-565 137,-565"/>
<text text-anchor="start" x="20" y="-553" font-family="Courier,monospace" font-size="10.00" fill="#000000">entry:</text>
<text text-anchor="start" x="20" y="-542" font-family="Courier,monospace" font-size="10.00" fill="#000000"> &#160;%v = alloca</text>
<text text-anchor="start" x="20" y="-531" font-family="Courier,monospace" font-size="10.00" fill="#000000"> &#160;%v = alloca</text>
<text text-anchor="start" x="20" y="-520" font-family="Courier,monospace" font-size="10.00" fill="#000000"> &#160;%v = alloca</text>
<text text-anchor="start" x="20" y="-509" font-family="Courier,monospace" font-size="10.00" fill="#000000"> &#160;... (8 more)</text>
<text text-anchor="start" x="20" y="-498" font-family="Courier,monospace" font-size="10.00" fill="#000000"> &#160;br %11 ? ... : ...</text>
</g>
<!-- 0x5638249edf50 -->
<g id="node2" class="node">
<title>0x5638249edf50</title>
<path fill="#add8e6" stroke="#000000" d="M81,-353C81,-353 22,-353 22,-353 16,-353 10,-347 10,-341 10,-341 10,-313 10,-313 10,-307 16,-301 22,-301 22,-301 81,-301 81,-301 87,-301 93,-307 93,-313 93,-313 93,-341 93,-341 93,-347 87,-353 81,-353"/>
<text text-anchor="start" x="18" y="-341" font-family="Courier,monospace" font-size="10.00" fill="#000000">BB1:</text>
<text text-anchor="start" x="18" y="-330" font-family="Courier,monospace" font-size="10.00" fill="#000000"> &#160;%v = load</text>
<text text-anchor="start" x="18" y="-319" font-family="Courier,monospace" font-size="10.00" fill="#000000"> &#160;store</text>
<text text-anchor="start" x="18" y="-308" font-family="Courier,monospace" font-size="10.00" fill="#000000"> &#160;br ...</text>
</g>
<!-- 0x5638249ede90&#45;&gt;0x5638249edf50 -->
<g id="edge1" class="edge">
<title>0x5638249ede90&#45;&gt;0x5638249edf50</title>
<path fill="none" stroke="#00ff00" d="M75.1133,-490.6645C69.8655,-454.2921 61.9396,-399.3571 56.7418,-363.3313"/>
<polygon fill="#00ff00" stroke="#00ff00" points="60.1797,-362.6491 55.2875,-353.2514 53.2515,-363.6488 60.1797,-362.6491"/>
<text text-anchor="middle" x="75.5" y="-465.8" font-family="Courier,monospace" font-size="9.00" fill="#000000">T</text>
</g>
<!-- 0x5638249ee510 -->
<g id="node3" class="node">
<title>0x5638249ee510</title>
<path fill="#add8e6" stroke="#000000" d="M192,-445C192,-445 115,-445 115,-445 109,-445 103,-439 103,-433 103,-433 103,-383 103,-383 103,-377 109,-371 115,-371 115,-371 192,-371 192,-371 198,-371 204,-377 204,-383 204,-383 204,-433 204,-433 204,-439 198,-445 192,-445"/>
<text text-anchor="start" x="111" y="-433" font-family="Courier,monospace" font-size="10.00" fill="#000000">BB2:</text>
<text text-anchor="start" x="111" y="-422" font-family="Courier,monospace" font-size="10.00" fill="#000000"> &#160;%v = load</text>
<text text-anchor="start" x="111" y="-411" font-family="Courier,monospace" font-size="10.00" fill="#000000"> &#160;%v = load</text>
<text text-anchor="start" x="111" y="-400" font-family="Courier,monospace" font-size="10.00" fill="#000000"> &#160;%v = add</text>
<text text-anchor="start" x="111" y="-389" font-family="Courier,monospace" font-size="10.00" fill="#000000"> &#160;... (2 more)</text>
<text text-anchor="start" x="111" y="-378" font-family="Courier,monospace" font-size="10.00" fill="#000000"> &#160;br ...</text>
</g>
<!-- 0x5638249ede90&#45;&gt;0x5638249ee510 -->
<g id="edge2" class="edge">
<title>0x5638249ede90&#45;&gt;0x5638249ee510</title>
<path fill="none" stroke="#ff0000" d="M103.1975,-490.689C110.2702,-479.0627 118.1538,-466.1034 125.5425,-453.9575"/>
<polygon fill="#ff0000" stroke="#ff0000" points="128.6095,-455.6503 130.8165,-445.2879 122.6291,-452.0122 128.6095,-455.6503"/>
<text text-anchor="middle" x="122.5" y="-465.8" font-family="Courier,monospace" font-size="9.00" fill="#000000">F</text>
</g>
<!-- 0x5638249ee710 -->
<g id="node8" class="node">
<title>0x5638249ee710</title>
<path fill="#f08080" stroke="#000000" d="M71,-52C71,-52 12,-52 12,-52 6,-52 0,-46 0,-40 0,-40 0,-23 0,-23 0,-17 6,-11 12,-11 12,-11 71,-11 71,-11 77,-11 83,-17 83,-23 83,-23 83,-40 83,-40 83,-46 77,-52 71,-52"/>
<text text-anchor="start" x="8" y="-40" font-family="Courier,monospace" font-size="10.00" fill="#000000">BB7:</text>
<text text-anchor="start" x="8" y="-29" font-family="Courier,monospace" font-size="10.00" fill="#000000"> &#160;%v = load</text>
<text text-anchor="start" x="8" y="-18" font-family="Courier,monospace" font-size="10.00" fill="#000000"> &#160;ret %41</text>
</g>
<!-- 0x5638249edf50&#45;&gt;0x5638249ee710 -->
<g id="edge3" class="edge">
<title>0x5638249edf50&#45;&gt;0x5638249ee710</title>
<path fill="none" stroke="#000000" d="M49.0389,-300.7698C46.3157,-270.3217 42.1004,-218.5783 40.5,-174 39.32,-141.1323 40.26,-132.888 40.5,-100 40.5897,-87.7071 40.77,-74.1744 40.9531,-62.4068"/>
<polygon fill="#000000" stroke="#000000" points="44.4562,-62.238 41.1195,-52.1823 37.4571,-62.124 44.4562,-62.238"/>
</g>
<!-- 0x5638249ee9d0 -->
<g id="node4" class="node">
<title>0x5638249ee9d0</title>
<path fill="#add8e6" stroke="#000000" d="M214,-283C214,-283 101,-283 101,-283 95,-283 89,-277 89,-271 89,-271 89,-232 89,-232 89,-226 95,-220 101,-220 101,-220 214,-220 214,-220 220,-220 226,-226 226,-232 226,-232 226,-271 226,-271 226,-277 220,-283 214,-283"/>
<text text-anchor="start" x="97" y="-271" font-family="Courier,monospace" font-size="10.00" fill="#000000">BB3:</text>
<text text-anchor="start" x="97" y="-260" font-family="Courier,monospace" font-size="10.00" fill="#000000"> &#160;%v = load</text>
<text text-anchor="start" x="97" y="-249" font-family="Courier,monospace" font-size="10.00" fill="#000000"> &#160;%v = load</text>
<text text-anchor="start" x="97" y="-238" font-family="Courier,monospace" font-size="10.00" fill="#000000"> &#160;%v = icmp slt</text>
<text text-anchor="start" x="97" y="-227" font-family="Courier,monospace" font-size="10.00" fill="#000000"> &#160;br %21 ? ... : ...</text>
</g>
<!-- 0x5638249ee510&#45;&gt;0x5638249ee9d0 -->
<g id="edge4" class="edge">
<title>0x5638249ee510&#45;&gt;0x5638249ee9d0</title>
<path fill="none" stroke="#000000" d="M154.4479,-370.9117C155.0436,-347.6054 155.8134,-317.4888 156.4308,-293.332"/>
<polygon fill="#000000" stroke="#000000" points="159.9371,-293.1268 156.6938,-283.0406 152.9394,-292.9479 159.9371,-293.1268"/>
</g>
<!-- 0x5638249eec00 -->
<g id="node5" class="node">
<title>0x5638249eec00</title>
<path fill="#add8e6" stroke="#000000" d="M285,-174C285,-174 202,-174 202,-174 196,-174 190,-168 190,-162 190,-162 190,-112 190,-112 190,-106 196,-100 202,-100 202,-100 285,-100 285,-100 291,-100 297,-106 297,-112 297,-112 297,-162 297,-162 297,-168 291,-174 285,-174"/>
<text text-anchor="start" x="198" y="-162" font-family="Courier,monospace" font-size="10.00" fill="#000000">BB4:</text>
<text text-anchor="start" x="198" y="-151" font-family="Courier,monospace" font-size="10.00" fill="#000000"> &#160;%v = load</text>
<text text-anchor="start" x="198" y="-140" font-family="Courier,monospace" font-size="10.00" fill="#000000"> &#160;%v = load</text>
<text text-anchor="start" x="198" y="-129" font-family="Courier,monospace" font-size="10.00" fill="#000000"> &#160;%v = add</text>
<text text-anchor="start" x="198" y="-118" font-family="Courier,monospace" font-size="10.00" fill="#000000"> &#160;... (10 more)</text>
<text text-anchor="start" x="198" y="-107" font-family="Courier,monospace" font-size="10.00" fill="#000000"> &#160;br ...</text>
</g>
<!-- 0x5638249ee9d0&#45;&gt;0x5638249eec00 -->
<g id="edge5" class="edge">
<title>0x5638249ee9d0&#45;&gt;0x5638249eec00</title>
<path fill="none" stroke="#00ff00" d="M181.2275,-219.9093C189.9553,-208.2891 200.0187,-194.8907 209.4759,-182.2995"/>
<polygon fill="#00ff00" stroke="#00ff00" points="212.3758,-184.2665 215.5829,-174.1687 206.7787,-180.0625 212.3758,-184.2665"/>
<text text-anchor="middle" x="203.5" y="-194.8" font-family="Courier,monospace" font-size="9.00" fill="#000000">T</text>
</g>
<!-- 0x5638249eec50 -->
<g id="node7" class="node">
<title>0x5638249eec50</title>
<path fill="#add8e6" stroke="#000000" d="M121,-163C121,-163 62,-163 62,-163 56,-163 50,-157 50,-151 50,-151 50,-123 50,-123 50,-117 56,-111 62,-111 62,-111 121,-111 121,-111 127,-111 133,-117 133,-123 133,-123 133,-151 133,-151 133,-157 127,-163 121,-163"/>
<text text-anchor="start" x="58" y="-151" font-family="Courier,monospace" font-size="10.00" fill="#000000">BB6:</text>
<text text-anchor="start" x="58" y="-140" font-family="Courier,monospace" font-size="10.00" fill="#000000"> &#160;%v = load</text>
<text text-anchor="start" x="58" y="-129" font-family="Courier,monospace" font-size="10.00" fill="#000000"> &#160;store</text>
<text text-anchor="start" x="58" y="-118" font-family="Courier,monospace" font-size="10.00" fill="#000000"> &#160;br ...</text>
</g>
<!-- 0x5638249ee9d0&#45;&gt;0x5638249eec50 -->
<g id="edge6" class="edge">
<title>0x5638249ee9d0&#45;&gt;0x5638249eec50</title>
<path fill="none" stroke="#ff0000" d="M139.2905,-219.9093C130.6787,-204.9691 120.3725,-187.0894 111.5393,-171.7651"/>
<polygon fill="#ff0000" stroke="#ff0000" points="114.5589,-169.995 106.5325,-163.0792 108.4942,-173.4908 114.5589,-169.995"/>
<text text-anchor="middle" x="131.5" y="-194.8" font-family="Courier,monospace" font-size="9.00" fill="#000000">F</text>
</g>
<!-- 0x5638249ef400 -->
<g id="node6" class="node">
<title>0x5638249ef400</title>
<path fill="#add8e6" stroke="#000000" d="M204,-63C204,-63 145,-63 145,-63 139,-63 133,-57 133,-51 133,-51 133,-12 133,-12 133,-6 139,0 145,0 145,0 204,0 204,0 210,0 216,-6 216,-12 216,-12 216,-51 216,-51 216,-57 210,-63 204,-63"/>
<text text-anchor="start" x="141" y="-51" font-family="Courier,monospace" font-size="10.00" fill="#000000">BB5:</text>
<text text-anchor="start" x="141" y="-40" font-family="Courier,monospace" font-size="10.00" fill="#000000"> &#160;%v = load</text>
<text text-anchor="start" x="141" y="-29" font-family="Courier,monospace" font-size="10.00" fill="#000000"> &#160;%v = add</text>
<text text-anchor="start" x="141" y="-18" font-family="Courier,monospace" font-size="10.00" fill="#000000"> &#160;store</text>
<text text-anchor="start" x="141" y="-7" font-family="Courier,monospace" font-size="10.00" fill="#000000"> &#160;br ...</text>
</g>
<!-- 0x5638249eec00&#45;&gt;0x5638249ef400 -->
<g id="edge7" class="edge">
<title>0x5638249eec00&#45;&gt;0x5638249ef400</title>
<path fill="none" stroke="#000000" d="M219.1732,-99.8046C213.2338,-90.7234 206.8526,-80.9666 200.8247,-71.7501"/>
<polygon fill="#000000" stroke="#000000" points="203.5824,-69.5721 195.1796,-63.1189 197.7241,-73.4036 203.5824,-69.5721"/>
</g>
<!-- 0x5638249ef400&#45;&gt;0x5638249ee9d0 -->
<g id="edge8" class="edge">
<title>0x5638249ef400&#45;&gt;0x5638249ee9d0</title>
<path fill="none" stroke="#000000" d="M172.0413,-63.3191C169.0535,-101.9835 164.0048,-167.3205 160.7122,-209.9306"/>
<polygon fill="#000000" stroke="#000000" points="157.2166,-209.7394 159.9357,-219.9794 164.1958,-210.2788 157.2166,-209.7394"/>
</g>
<!-- 0x5638249eec50&#45;&gt;0x5638249ee710 -->
<g id="edge9" class="edge">
<title>0x5638249eec50&#45;&gt;0x5638249ee710</title>
<path fill="none" stroke="#000000" d="M79.1404,-110.9213C72.0517,-95.9641 63.123,-77.1245 55.7409,-61.5483"/>
<polygon fill="#000000" stroke="#000000" points="58.8202,-59.8731 51.3747,-52.3355 52.4946,-62.871 58.8202,-59.8731"/>
</g>
</g>
</svg>
