<?xml version="1.0" encoding="UTF-8" standalone="no"?>
<!DOCTYPE svg PUBLIC "-//W3C//DTD SVG 1.1//EN"
 "http://www.w3.org/Graphics/SVG/1.1/DTD/svg11.dtd">
<!-- Generated by graphviz version 2.40.1 (0)
 -->
<!-- Title: CFG of fanout_walk Pages: 1 -->
<svg width="228pt" height="378pt"
 viewBox="0.00 0.00 228.00 378.00" xmlns="http://www.w3.org/2000/svg" xmlns:xlink="http://www.w3.org/1999/xlink">
<g id="graph0" class="graph" transform="scale(1 1) rotate(0) translate(4 374)">
<title>CFG of fanout_walk</title>
<polygon fill="#ffffff" stroke="transparent" points="-4,4 -4,-374 224,-374 224,4 -4,4"/>
<!-- 0x5638249ec370 -->
<g id="node1" class="node">
<title>0x5638249ec370</title>
<path fill="#90ee90" stroke="#000000" stroke-width="2" d="M188,-370C188,-370 81,-370 81,-370 75,-370 69,-364 69,-358 69,-358 69,-308 69,-308 69,-302 75,-296 81,-296 81,-296 188,-296 188,-296 194,-296 200,-302 200,-308 200,-308 200,-358 200,-358 200,-364 194,-370 188,-370"/>
<text text-anchor="start" x="77" y="-358" font-family="Courier,monospace" font-size="10.00" fill="#000000">entry:</text>
<text text-anchor="start" x="77" y="-347" font-family="Courier,monospace" font-size="10.00" fill="#000000"> &#160;%v = alloca</text>
<text text-anchor="start" x="77" y="-336" font-family="Courier,monospace" font-size="10.00" fill="#000000"> &#160;%v = alloca</text>
<text text-anchor="start" x="77" y="-325" font-family="Courier,monospace" font-size="10.00" fill="#000000"> &#160;%v = alloca</text>
<text text-anchor="start" x="77" y="-314" font-family="Courier,monospace" font-size="10.00" fill="#000000"> &#160;... (5 more)</text>
<text text-anchor="start" x="77" y="-303" font-family="Courier,monospace" font-size="10.00" fill="#000000"> &#160;br %8 ? ... : ...</text>
</g>
<!-- 0x5638249ec4d0 -->
<g id="node2" class="node">
<title>0x5638249ec4d0</title>
<path fill="#add8e6" stroke="#000000" d="M139,-250C139,-250 26,-250 26,-250 20,-250 14,-244 14,-238 14,-238 14,-210 14,-210 14,-204 20,-198 26,-198 26,-198 139,-198 139,-198 145,-198 151,-204 151,-210 151,-210 151,-238 151,-238 151,-244 145,-250 139,-250"/>
<text text-anchor="start" x="22" y="-238" font-family="Courier,monospace" font-size="10.00" fill="#000000">BB1:</text>
<text text-anchor="start" x="22" y="-227" font-family="Courier,monospace" font-size="10.00" fill="#000000"> &#160;%v = load</text>
<text text-anchor="start" x="22" y="-216" font-family="Courier,monospace" font-size="10.00" fill="#000000"> &#160;%v = icmp sle</text>
<text text-anchor="start" x="22" y="-205" font-family="Courier,monospace" font-size="10.00" fill="#000000"> &#160;br %11 ? ... : ...</text>
</g>
<!-- 0x5638249ec370&#45;&gt;0x5638249ec4d0 -->
<g id="edge1" class="edge">
<title>0x5638249ec370&#45;&gt;0x5638249ec4d0</title>
<path fill="none" stroke="#00ff00" d="M116.75,-295.7932C111.0854,-283.9193 104.8379,-270.8236 99.2469,-259.104"/>
<polygon fill="#00ff00" stroke="#00ff00" points="102.3922,-257.5683 94.9274,-250.0498 96.0743,-260.5824 102.3922,-257.5683"/>
<text text-anchor="middle" x="110.5" y="-270.8" font-family="Courier,monospace" font-size="9.00" fill="#000000">T</text>
</g>
<!-- 0x5638249eccc0 -->
<g id="node3" class="node">
<title>0x5638249eccc0</title>
<path fill="#add8e6" stroke="#000000" d="M208,-135.5C208,-135.5 167,-135.5 167,-135.5 161,-135.5 155,-129.5 155,-123.5 155,-123.5 155,-106.5 155,-106.5 155,-100.5 161,-94.5 167,-94.5 167,-94.5 208,-94.5 208,-94.5 214,-94.5 220,-100.5 220,-106.5 220,-106.5 220,-123.5 220,-123.5 220,-129.5 214,-135.5 208,-135.5"/>
<text text-anchor="start" x="163" y="-123.5" font-family="Courier,monospace" font-size="10.00" fill="#000000">BB2:</text>
<text text-anchor="start" x="163" y="-112.5" font-family="Courier,monospace" font-size="10.00" fill="#000000"> &#160;store</text>
<text text-anchor="start" x="163" y="-101.5" font-family="Courier,monospace" font-size="10.00" fill="#000000"> &#160;br ...</text>
</g>
<!-- 0x5638249ec370&#45;&gt;0x5638249eccc0 -->
<g id="edge2" class="edge">
<title>0x5638249ec370&#45;&gt;0x5638249eccc0</title>
<path fill="none" stroke="#ff0000" d="M146.5297,-295.5962C150.8954,-281.3949 155.6871,-265.0244 159.5,-250 168.4925,-214.5662 176.721,-173.3623 181.8966,-145.8846"/>
<polygon fill="#ff0000" stroke="#ff0000" points="185.4007,-146.1851 183.7909,-135.7133 178.519,-144.9034 185.4007,-146.1851"/>
<text text-anchor="middle" x="174.5" y="-221.8" font-family="Courier,monospace" font-size="9.00" fill="#000000">F</text>
</g>
<!-- 0x5638249ec4d0&#45;&gt;0x5638249eccc0 -->
<g id="edge3" class="edge">
<title>0x5638249ec4d0&#45;&gt;0x5638249eccc0</title>
<path fill="none" stroke="#00ff00" d="M107.6501,-197.8918C123.5392,-181.3974 144.0653,-160.0894 160.3275,-143.2076"/>
<polygon fill="#00ff00" stroke="#00ff00" points="163.0503,-145.426 167.4673,-135.7958 158.0089,-140.5696 163.0503,-145.426"/>
<text text-anchor="middle" x="135.5" y="-172.8" font-family="Courier,monospace" font-size="9.00" fill="#000000">T</text>
</g>
<!-- 0x5638249ecf00 -->
<g id="node4" class="node">
<title>0x5638249ecf00</title>
<path fill="#add8e6" stroke="#000000" d="M125,-152C125,-152 12,-152 12,-152 6,-152 0,-146 0,-140 0,-140 0,-90 0,-90 0,-84 6,-78 12,-78 12,-78 125,-78 125,-78 131,-78 137,-84 137,-90 137,-90 137,-140 137,-140 137,-146 131,-152 125,-152"/>
<text text-anchor="start" x="8" y="-140" font-family="Courier,monospace" font-size="10.00" fill="#000000">BB3:</text>
<text text-anchor="start" x="8" y="-129" font-family="Courier,monospace" font-size="10.00" fill="#000000"> &#160;%v = load</text>
<text text-anchor="start" x="8" y="-118" font-family="Courier,monospace" font-size="10.00" fill="#000000"> &#160;%v = getelementptr</text>
<text text-anchor="start" x="8" y="-107" font-family="Courier,monospace" font-size="10.00" fill="#000000"> &#160;%v = load</text>
<text text-anchor="start" x="8" y="-96" font-family="Courier,monospace" font-size="10.00" fill="#000000"> &#160;... (15 more)</text>
<text text-anchor="start" x="8" y="-85" font-family="Courier,monospace" font-size="10.00" fill="#000000"> &#160;br ...</text>
</g>
<!-- 0x5638249ec4d0&#45;&gt;0x5638249ecf00 -->
<g id="edge4" class="edge">
<title>0x5638249ec4d0&#45;&gt;0x5638249ecf00</title>
<path fill="none" stroke="#ff0000" d="M79.1467,-197.8918C77.7689,-187.1652 76.1297,-174.4028 74.5554,-162.1459"/>
<polygon fill="#ff0000" stroke="#ff0000" points="78.001,-161.4974 73.2555,-152.0248 71.058,-162.3892 78.001,-161.4974"/>
<text text-anchor="middle" x="80.5" y="-172.8" font-family="Courier,monospace" font-size="9.00" fill="#000000">F</text>
</g>
<!-- 0x5638249ed090 -->
<g id="node5" class="node">
<title>0x5638249ed090</title>
<path fill="#f08080" stroke="#000000" d="M157,-41C157,-41 98,-41 98,-41 92,-41 86,-35 86,-29 86,-29 86,-12 86,-12 86,-6 92,0 98,0 98,0 157,0 157,0 163,0 169,-6 169,-12 169,-12 169,-29 169,-29 169,-35 163,-41 157,-41"/>
<text text-anchor="start" x="94" y="-29" font-family="Courier,monospace" font-size="10.00" fill="#000000">BB4:</text>
<text text-anchor="start" x="94" y="-18" font-family="Courier,monospace" font-size="10.00" fill="#000000"> &#160;%v = load</text>
<text text-anchor="start" x="94" y="-7" font-family="Courier,monospace" font-size="10.00" fill="#000000"> &#160;ret %31</text>
</g>
<!-- 0x5638249eccc0&#45;&gt;0x5638249ed090 -->
<g id="edge5" class="edge">
<title>0x5638249eccc0&#45;&gt;0x5638249ed090</title>
<path fill="none" stroke="#000000" d="M174.4809,-94.4949C166.2037,-81.4584 155.3551,-64.3717 146.1683,-49.9026"/>
<polygon fill="#000000" stroke="#000000" points="149.0158,-47.8575 140.7009,-41.2914 143.1063,-51.6096 149.0158,-47.8575"/>
</g>
<!-- 0x5638249ecf00&#45;&gt;0x5638249ed090 -->
<g id="edge6" class="edge">
<title>0x5638249ecf00&#45;&gt;0x5638249ed090</title>
<path fill="none" stroke="#000000" d="M91.649,-77.9223C97.5085,-68.5372 103.7189,-58.5901 109.2951,-49.6587"/>
<polygon fill="#000000" stroke="#000000" points="112.2963,-51.4605 114.6234,-41.1244 106.3585,-47.7533 112.2963,-51.4605"/>
</g>
</g>
</svg>
