<?xml version="1.0" encoding="UTF-8" standalone="no"?>
<!DOCTYPE svg PUBLIC "-//W3C//DTD SVG 1.1//EN"
 "http://www.w3.org/Graphics/SVG/1.1/DTD/svg11.dtd">
<!-- Generated by graphviz version 2.40.1 (0)
 -->
<!-- Title: CFG of log_progress Pages: 1 -->
<svg width="345pt" height="402pt"
 viewBox="0.00 0.00 344.99 402.00" xmlns="http://www.w3.org/2000/svg" xmlns:xlink="http://www.w3.org/1999/xlink">
<g id="graph0" class="graph" transform="scale(1 1) rotate(0) translate(4 398)">
<title>CFG of log_progress</title>
<polygon fill="#ffffff" stroke="transparent" points="-4,4 -4,-398 340.9865,-398 340.9865,4 -4,4"/>
<!-- 0x5638249f32b0 -->
<g id="node1" class="node">
<title>0x5638249f32b0</title>
<path fill="#90ee90" stroke="#000000" stroke-width="2" d="M274,-394C274,-394 197,-394 197,-394 191,-394 185,-388 185,-382 185,-382 185,-332 185,-332 185,-326 191,-320 197,-320 197,-320 274,-320 274,-320 280,-320 286,-326 286,-332 286,-332 286,-382 286,-382 286,-388 280,-394 274,-394"/>
<text text-anchor="start" x="193" y="-382" font-family="Courier,monospace" font-size="10.00" fill="#000000">entry:</text>
<text text-anchor="start" x="193" y="-371" font-family="Courier,monospace" font-size="10.00" fill="#000000"> &#160;%v = alloca</text>
<text text-anchor="start" x="193" y="-360" font-family="Courier,monospace" font-size="10.00" fill="#000000"> &#160;%v = alloca</text>
<text text-anchor="start" x="193" y="-349" font-family="Courier,monospace" font-size="10.00" fill="#000000"> &#160;%v = alloca</text>
<text text-anchor="start" x="193" y="-338" font-family="Courier,monospace" font-size="10.00" fill="#000000"> &#160;... (4 more)</text>
<text text-anchor="start" x="193" y="-327" font-family="Courier,monospace" font-size="10.00" fill="#000000"> &#160;br ...</text>
</g>
<!-- 0x5638249f37d0 -->
<g id="node2" class="node">
<title>0x5638249f37d0</title>
<path fill="#add8e6" stroke="#000000" d="M292,-283C292,-283 179,-283 179,-283 173,-283 167,-277 167,-271 167,-271 167,-232 167,-232 167,-226 173,-220 179,-220 179,-220 292,-220 292,-220 298,-220 304,-226 304,-232 304,-232 304,-271 304,-271 304,-277 298,-283 292,-283"/>
<text text-anchor="start" x="175" y="-271" font-family="Courier,monospace" font-size="10.00" fill="#000000">BB1:</text>
<text text-anchor="start" x="175" y="-260" font-family="Courier,monospace" font-size="10.00" fill="#000000"> &#160;%v = load</text>
<text text-anchor="start" x="175" y="-249" font-family="Courier,monospace" font-size="10.00" fill="#000000"> &#160;%v = load</text>
<text text-anchor="start" x="175" y="-238" font-family="Courier,monospace" font-size="10.00" fill="#000000"> &#160;%v = icmp ult</text>
<text text-anchor="start" x="175" y="-227" font-family="Courier,monospace" font-size="10.00" fill="#000000"> &#160;br %10 ? ... : ...</text>
</g>
<!-- 0x5638249f32b0&#45;&gt;0x5638249f37d0 -->
<g id="edge1" class="edge">
<title>0x5638249f32b0&#45;&gt;0x5638249f37d0</title>
<path fill="none" stroke="#000000" d="M235.5,-319.8046C235.5,-311.1915 235.5,-301.9707 235.5,-293.1795"/>
<polygon fill="#000000" stroke="#000000" points="239.0001,-293.1188 235.5,-283.1189 232.0001,-293.1189 239.0001,-293.1188"/>
</g>
<!-- 0x5638249f3410 -->
<g id="node3" class="node">
<title>0x5638249f3410</title>
<path fill="#add8e6" stroke="#000000" d="M125,-174C125,-174 12,-174 12,-174 6,-174 0,-168 0,-162 0,-162 0,-112 0,-112 0,-106 6,-100 12,-100 12,-100 125,-100 125,-100 131,-100 137,-106 137,-112 137,-112 137,-162 137,-162 137,-168 131,-174 125,-174"/>
<text text-anchor="start" x="8" y="-162" font-family="Courier,monospace" font-size="10.00" fill="#000000">BB2:</text>
<text text-anchor="start" x="8" y="-151" font-family="Courier,monospace" font-size="10.00" fill="#000000"> &#160;%v = load</text>
<text text-anchor="start" x="8" y="-140" font-family="Courier,monospace" font-size="10.00" fill="#000000"> &#160;%v = load</text>
<text text-anchor="start" x="8" y="-129" font-family="Courier,monospace" font-size="10.00" fill="#000000"> &#160;%v = getelementptr</text>
<text text-anchor="start" x="8" y="-118" font-family="Courier,monospace" font-size="10.00" fill="#000000"> &#160;... (1 more)</text>
<text text-anchor="start" x="8" y="-107" font-family="Courier,monospace" font-size="10.00" fill="#000000"> &#160;br ...</text>
</g>
<!-- 0x5638249f37d0&#45;&gt;0x5638249f3410 -->
<g id="edge2" class="edge">
<title>0x5638249f37d0&#45;&gt;0x5638249f3410</title>
<path fill="none" stroke="#00ff00" d="M189.4244,-219.9093C171.4271,-207.5698 150.5051,-193.2251 131.174,-179.9711"/>
<polygon fill="#00ff00" stroke="#00ff00" points="132.9379,-176.9369 122.7111,-174.1687 128.9795,-182.7102 132.9379,-176.9369"/>
<text text-anchor="middle" x="165.5" y="-194.8" font-family="Courier,monospace" font-size="9.00" fill="#000000">T</text>
</g>
<!-- 0x5638249f3a90 -->
<g id="node5" class="node">
<title>0x5638249f3a90</title>
<path fill="#f08080" stroke="#000000" d="M304,-174C304,-174 167,-174 167,-174 161,-174 155,-168 155,-162 155,-162 155,-112 155,-112 155,-106 161,-100 167,-100 167,-100 304,-100 304,-100 310,-100 316,-106 316,-112 316,-112 316,-162 316,-162 316,-168 310,-174 304,-174"/>
<text text-anchor="start" x="163" y="-162" font-family="Courier,monospace" font-size="10.00" fill="#000000">BB4:</text>
<text text-anchor="start" x="163" y="-151" font-family="Courier,monospace" font-size="10.00" fill="#000000"> &#160;%v = load</text>
<text text-anchor="start" x="163" y="-140" font-family="Courier,monospace" font-size="10.00" fill="#000000"> &#160;%v = load</text>
<text text-anchor="start" x="163" y="-129" font-family="Courier,monospace" font-size="10.00" fill="#000000"> &#160;%v = call @sum_weights</text>
<text text-anchor="start" x="163" y="-118" font-family="Courier,monospace" font-size="10.00" fill="#000000"> &#160;... (1 more)</text>
<text text-anchor="start" x="163" y="-107" font-family="Courier,monospace" font-size="10.00" fill="#000000"> &#160;ret</text>
</g>
<!-- 0x5638249f37d0&#45;&gt;0x5638249f3a90 -->
<g id="edge3" class="edge">
<title>0x5638249f37d0&#45;&gt;0x5638249f3a90</title>
<path fill="none" stroke="#ff0000" d="M235.5,-219.9093C235.5,-208.9531 235.5,-196.4162 235.5,-184.4655"/>
<polygon fill="#ff0000" stroke="#ff0000" points="239.0001,-184.1687 235.5,-174.1687 232.0001,-184.1687 239.0001,-184.1687"/>
<text text-anchor="middle" x="238.5" y="-194.8" font-family="Courier,monospace" font-size="9.00" fill="#000000">F</text>
</g>
<!-- 0x5638249f3f20 -->
<g id="node4" class="node">
<title>0x5638249f3f20</title>
<path fill="#add8e6" stroke="#000000" d="M236,-63C236,-63 177,-63 177,-63 171,-63 165,-57 165,-51 165,-51 165,-12 165,-12 165,-6 171,0 177,0 177,0 236,0 236,0 242,0 248,-6 248,-12 248,-12 248,-51 248,-51 248,-57 242,-63 236,-63"/>
<text text-anchor="start" x="173" y="-51" font-family="Courier,monospace" font-size="10.00" fill="#000000">BB3:</text>
<text text-anchor="start" x="173" y="-40" font-family="Courier,monospace" font-size="10.00" fill="#000000"> &#160;%v = load</text>
<text text-anchor="start" x="173" y="-29" font-family="Courier,monospace" font-size="10.00" fill="#000000"> &#160;%v = add</text>
<text text-anchor="start" x="173" y="-18" font-family="Courier,monospace" font-size="10.00" fill="#000000"> &#160;store</text>
<text text-anchor="start" x="173" y="-7" font-family="Courier,monospace" font-size="10.00" fill="#000000"> &#160;br ...</text>
</g>
<!-- 0x5638249f3410&#45;&gt;0x5638249f3f20 -->
<g id="edge4" class="edge">
<title>0x5638249f3410&#45;&gt;0x5638249f3f20</title>
<path fill="none" stroke="#000000" d="M117.1536,-99.8046C130.1346,-89.8808 144.1707,-79.1503 157.1868,-69.1996"/>
<polygon fill="#000000" stroke="#000000" points="159.322,-71.9729 165.1407,-63.1189 155.0706,-66.4118 159.322,-71.9729"/>
</g>
<!-- 0x5638249f3f20&#45;&gt;0x5638249f37d0 -->
<g id="edge5" class="edge">
<title>0x5638249f3f20&#45;&gt;0x5638249f37d0</title>
<path fill="none" stroke="#000000" d="M248.2505,-43.4814C275.4983,-53.713 308.9737,-71.4182 325.5,-100 341.9628,-128.472 339.2087,-144.1044 325.5,-174 318.596,-189.056 307.1634,-202.294 294.724,-213.3725"/>
<polygon fill="#000000" stroke="#000000" points="292.2676,-210.8655 286.88,-219.9883 296.7807,-216.2164 292.2676,-210.8655"/>
</g>
</g>
</svg>
