<?xml version="1.0" encoding="UTF-8" standalone="no"?>
<!DOCTYPE svg PUBLIC "-//W3C//DTD SVG 1.1//EN"
 "http://www.w3.org/Graphics/SVG/1.1/DTD/svg11.dtd">
<!-- Generated by graphviz version 2.40.1 (0)
 -->
<!-- Title: CFG of print_task Pages: 1 -->
<svg width="109pt" height="82pt"
 viewBox="0.00 0.00 109.00 82.00" xmlns="http://www.w3.org/2000/svg" xmlns:xlink="http://www.w3.org/1999/xlink">
<g id="graph0" class="graph" transform="scale(1 1) rotate(0) translate(4 78)">
<title>CFG of print_task</title>
<polygon fill="#ffffff" stroke="transparent" points="-4,4 -4,-78 105,-78 105,4 -4,4"/>
<!-- 0x5638249f4960 -->
<g id="node1" class="node">
<title>0x5638249f4960</title>
<path fill="#90ee90" stroke="#000000" stroke-width="2" d="M89,-74C89,-74 12,-74 12,-74 6,-74 0,-68 0,-62 0,-62 0,-12 0,-12 0,-6 6,0 12,0 12,0 89,0 89,0 95,0 101,-6 101,-12 101,-12 101,-62 101,-62 101,-68 95,-74 89,-74"/>
<text text-anchor="start" x="8" y="-62" font-family="Courier,monospace" font-size="10.00" fill="#000000">entry:</text>
<text text-anchor="start" x="8" y="-51" font-family="Courier,monospace" font-size="10.00" fill="#000000"> &#160;%v = alloca</text>
<text text-anchor="start" x="8" y="-40" font-family="Courier,monospace" font-size="10.00" fill="#000000"> &#160;store</text>
<text text-anchor="start" x="8" y="-29" font-family="Courier,monospace" font-size="10.00" fill="#000000"> &#160;%v = load</text>
<text text-anchor="start" x="8" y="-18" font-family="Courier,monospace" font-size="10.00" fill="#000000"> &#160;... (9 more)</text>
<text text-anchor="start" x="8" y="-7" font-family="Courier,monospace" font-size="10.00" fill="#000000"> &#160;ret</text>
</g>
</g>
</svg>
