<?xml version="1.0" encoding="UTF-8" standalone="no"?>
<!DOCTYPE svg PUBLIC "-//W3C//DTD SVG 1.1//EN"
 "http://www.w3.org/Graphics/SVG/1.1/DTD/svg11.dtd">
<!-- Generated by graphviz version 2.40.1 (0)
 -->
<!-- Title: CFG of run_pipeline Pages: 1 -->
<svg width="384pt" height="600pt"
 viewBox="0.00 0.00 383.50 600.00" xmlns="http://www.w3.org/2000/svg" xmlns:xlink="http://www.w3.org/1999/xlink">
<g id="graph0" class="graph" transform="scale(1 1) rotate(0) translate(4 596)">
<title>CFG of run_pipeline</title>
<polygon fill="#ffffff" stroke="transparent" points="-4,4 -4,-596 379.5,-596 379.5,4 -4,4"/>
<!-- 0x5638249efac0 -->
<g id="node1" class="node">
<title>0x5638249efac0</title>
<path fill="#90ee90" stroke="#000000" stroke-width="2" d="M317,-592C317,-592 240,-592 240,-592 234,-592 228,-586 228,-580 228,-580 228,-530 228,-530 228,-524 234,-518 240,-518 240,-518 317,-518 317,-518 323,-518 329,-524 329,-530 329,-530 329,-580 329,-580 329,-586 323,-592 317,-592"/>
<text text-anchor="start" x="236" y="-580" font-family="Courier,monospace" font-size="10.00" fill="#000000">entry:</text>
<text text-anchor="start" x="236" y="-569" font-family="Courier,monospace" font-size="10.00" fill="#000000"> &#160;%v = alloca</text>
<text text-anchor="start" x="236" y="-558" font-family="Courier,monospace" font-size="10.00" fill="#000000"> &#160;%v = alloca</text>
<text text-anchor="start" x="236" y="-547" font-family="Courier,monospace" font-size="10.00" fill="#000000"> &#160;%v = alloca</text>
<text text-anchor="start" x="236" y="-536" font-family="Courier,monospace" font-size="10.00" fill="#000000"> &#160;... (6 more)</text>
<text text-anchor="start" x="236" y="-525" font-family="Courier,monospace" font-size="10.00" fill="#000000"> &#160;br ...</text>
</g>
<!-- 0x5638249f0000 -->
<g id="node2" class="node">
<title>0x5638249f0000</title>
<path fill="#add8e6" stroke="#000000" d="M335,-481C335,-481 222,-481 222,-481 216,-481 210,-475 210,-469 210,-469 210,-430 210,-430 210,-424 216,-418 222,-418 222,-418 335,-418 335,-418 341,-418 347,-424 347,-430 347,-430 347,-469 347,-469 347,-475 341,-481 335,-481"/>
<text text-anchor="start" x="218" y="-469" font-family="Courier,monospace" font-size="10.00" fill="#000000">BB1:</text>
<text text-anchor="start" x="218" y="-458" font-family="Courier,monospace" font-size="10.00" fill="#000000"> &#160;%v = load</text>
<text text-anchor="start" x="218" y="-447" font-family="Courier,monospace" font-size="10.00" fill="#000000"> &#160;%v = load</text>
<text text-anchor="start" x="218" y="-436" font-family="Courier,monospace" font-size="10.00" fill="#000000"> &#160;%v = icmp ult</text>
<text text-anchor="start" x="218" y="-425" font-family="Courier,monospace" font-size="10.00" fill="#000000"> &#160;br %11 ? ... : ...</text>
</g>
<!-- 0x5638249efac0&#45;&gt;0x5638249f0000 -->
<g id="edge1" class="edge">
<title>0x5638249efac0&#45;&gt;0x5638249f0000</title>
<path fill="none" stroke="#000000" d="M278.5,-517.8046C278.5,-509.1915 278.5,-499.9707 278.5,-491.1795"/>
<polygon fill="#000000" stroke="#000000" points="282.0001,-491.1188 278.5,-481.1189 275.0001,-491.1189 282.0001,-491.1188"/>
</g>
<!-- 0x5638249efc20 -->
<g id="node3" class="node">
<title>0x5638249efc20</title>
<path fill="#add8e6" stroke="#000000" d="M180,-372C180,-372 67,-372 67,-372 61,-372 55,-366 55,-360 55,-360 55,-310 55,-310 55,-304 61,-298 67,-298 67,-298 180,-298 180,-298 186,-298 192,-304 192,-310 192,-310 192,-360 192,-360 192,-366 186,-372 180,-372"/>
<text text-anchor="start" x="63" y="-360" font-family="Courier,monospace" font-size="10.00" fill="#000000">BB2:</text>
<text text-anchor="start" x="63" y="-349" font-family="Courier,monospace" font-size="10.00" fill="#000000"> &#160;%v = load</text>
<text text-anchor="start" x="63" y="-338" font-family="Courier,monospace" font-size="10.00" fill="#000000"> &#160;%v = load</text>
<text text-anchor="start" x="63" y="-327" font-family="Courier,monospace" font-size="10.00" fill="#000000"> &#160;%v = getelementptr</text>
<text text-anchor="start" x="63" y="-316" font-family="Courier,monospace" font-size="10.00" fill="#000000"> &#160;... (18 more)</text>
<text text-anchor="start" x="63" y="-305" font-family="Courier,monospace" font-size="10.00" fill="#000000"> &#160;br %31 ? ... : ...</text>
</g>
<!-- 0x5638249f0000&#45;&gt;0x5638249efc20 -->
<g id="edge2" class="edge">
<title>0x5638249f0000&#45;&gt;0x5638249efc20</title>
<path fill="none" stroke="#00ff00" d="M235.7353,-417.9093C219.1061,-405.6251 199.7867,-391.3537 181.9119,-378.1494"/>
<polygon fill="#00ff00" stroke="#00ff00" points="183.9387,-375.2953 173.8157,-372.1687 179.7795,-380.9256 183.9387,-375.2953"/>
<text text-anchor="middle" x="213.5" y="-392.8" font-family="Courier,monospace" font-size="9.00" fill="#000000">T</text>
</g>
<!-- 0x5638249f02c0 -->
<g id="node7" class="node">
<title>0x5638249f02c0</title>
<path fill="#add8e6" stroke="#000000" d="M335,-361C335,-361 222,-361 222,-361 216,-361 210,-355 210,-349 210,-349 210,-321 210,-321 210,-315 216,-309 222,-309 222,-309 335,-309 335,-309 341,-309 347,-315 347,-321 347,-321 347,-349 347,-349 347,-355 341,-361 335,-361"/>
<text text-anchor="start" x="218" y="-349" font-family="Courier,monospace" font-size="10.00" fill="#000000">BB6:</text>
<text text-anchor="start" x="218" y="-338" font-family="Courier,monospace" font-size="10.00" fill="#000000"> &#160;%v = load</text>
<text text-anchor="start" x="218" y="-327" font-family="Courier,monospace" font-size="10.00" fill="#000000"> &#160;%v = icmp slt</text>
<text text-anchor="start" x="218" y="-316" font-family="Courier,monospace" font-size="10.00" fill="#000000"> &#160;br %49 ? ... : ...</text>
</g>
<!-- 0x5638249f0000&#45;&gt;0x5638249f02c0 -->
<g id="edge3" class="edge">
<title>0x5638249f0000&#45;&gt;0x5638249f02c0</title>
<path fill="none" stroke="#ff0000" d="M278.5,-417.9093C278.5,-403.5276 278.5,-386.4221 278.5,-371.4941"/>
<polygon fill="#ff0000" stroke="#ff0000" points="282.0001,-371.0791 278.5,-361.0792 275.0001,-371.0792 282.0001,-371.0791"/>
<text text-anchor="middle" x="281.5" y="-392.8" font-family="Courier,monospace" font-size="9.00" fill="#000000">F</text>
</g>
<!-- 0x5638249f0e60 -->
<g id="node4" class="node">
<title>0x5638249f0e60</title>
<path fill="#add8e6" stroke="#000000" d="M149,-252C149,-252 12,-252 12,-252 6,-252 0,-246 0,-240 0,-240 0,-190 0,-190 0,-184 6,-178 12,-178 12,-178 149,-178 149,-178 155,-178 161,-184 161,-190 161,-190 161,-240 161,-240 161,-246 155,-252 149,-252"/>
<text text-anchor="start" x="8" y="-240" font-family="Courier,monospace" font-size="10.00" fill="#000000">BB3:</text>
<text text-anchor="start" x="8" y="-229" font-family="Courier,monospace" font-size="10.00" fill="#000000"> &#160;%v = load</text>
<text text-anchor="start" x="8" y="-218" font-family="Courier,monospace" font-size="10.00" fill="#000000"> &#160;%v = load</text>
<text text-anchor="start" x="8" y="-207" font-family="Courier,monospace" font-size="10.00" fill="#000000"> &#160;%v = call @sum_weights</text>
<text text-anchor="start" x="8" y="-196" font-family="Courier,monospace" font-size="10.00" fill="#000000"> &#160;... (8 more)</text>
<text text-anchor="start" x="8" y="-185" font-family="Courier,monospace" font-size="10.00" fill="#000000"> &#160;br ...</text>
</g>
<!-- 0x5638249efc20&#45;&gt;0x5638249f0e60 -->
<g id="edge4" class="edge">
<title>0x5638249efc20&#45;&gt;0x5638249f0e60</title>
<path fill="none" stroke="#00ff00" d="M110.1302,-297.689C106.0855,-286.4013 101.5905,-273.8572 97.3491,-262.0208"/>
<polygon fill="#00ff00" stroke="#00ff00" points="100.5297,-260.5211 93.8615,-252.2879 93.94,-262.8824 100.5297,-260.5211"/>
<text text-anchor="middle" x="106.5" y="-272.8" font-family="Courier,monospace" font-size="9.00" fill="#000000">T</text>
</g>
<!-- 0x5638249f0eb0 -->
<g id="node5" class="node">
<title>0x5638249f0eb0</title>
<path fill="#add8e6" stroke="#000000" d="M218,-138.5C218,-138.5 177,-138.5 177,-138.5 171,-138.5 165,-132.5 165,-126.5 165,-126.5 165,-114.5 165,-114.5 165,-108.5 171,-102.5 177,-102.5 177,-102.5 218,-102.5 218,-102.5 224,-102.5 230,-108.5 230,-114.5 230,-114.5 230,-126.5 230,-126.5 230,-132.5 224,-138.5 218,-138.5"/>
<text text-anchor="start" x="173" y="-123.5" font-family="Courier,monospace" font-size="10.00" fill="#000000">BB4:</text>
<text text-anchor="start" x="173" y="-112.5" font-family="Courier,monospace" font-size="10.00" fill="#000000"> &#160;br ...</text>
</g>
<!-- 0x5638249efc20&#45;&gt;0x5638249f0eb0 -->
<g id="edge5" class="edge">
<title>0x5638249efc20&#45;&gt;0x5638249f0eb0</title>
<path fill="none" stroke="#ff0000" d="M147.2583,-297.7039C155.2807,-283.7918 163.6705,-267.5849 169.5,-252 182.3502,-217.6454 189.9748,-175.919 193.9472,-148.8153"/>
<polygon fill="#ff0000" stroke="#ff0000" points="197.4226,-149.2343 195.3398,-138.8462 190.4899,-148.2658 197.4226,-149.2343"/>
<text text-anchor="middle" x="192.5" y="-212.8" font-family="Courier,monospace" font-size="9.00" fill="#000000">F</text>
</g>
<!-- 0x5638249f0e60&#45;&gt;0x5638249f0eb0 -->
<g id="edge6" class="edge">
<title>0x5638249f0e60&#45;&gt;0x5638249f0eb0</title>
<path fill="none" stroke="#000000" d="M126.4057,-177.9223C140.165,-166.8091 154.9001,-154.9076 167.3673,-144.838"/>
<polygon fill="#000000" stroke="#000000" points="169.6192,-147.5182 175.1995,-138.512 165.2208,-142.0726 169.6192,-147.5182"/>
</g>
<!-- 0x5638249f16d0 -->
<g id="node6" class="node">
<title>0x5638249f16d0</title>
<path fill="#add8e6" stroke="#000000" d="M316,-63C316,-63 257,-63 257,-63 251,-63 245,-57 245,-51 245,-51 245,-12 245,-12 245,-6 251,0 257,0 257,0 316,0 316,0 322,0 328,-6 328,-12 328,-12 328,-51 328,-51 328,-57 322,-63 316,-63"/>
<text text-anchor="start" x="253" y="-51" font-family="Courier,monospace" font-size="10.00" fill="#000000">BB5:</text>
<text text-anchor="start" x="253" y="-40" font-family="Courier,monospace" font-size="10.00" fill="#000000"> &#160;%v = load</text>
<text text-anchor="start" x="253" y="-29" font-family="Courier,monospace" font-size="10.00" fill="#000000"> &#160;%v = add</text>
<text text-anchor="start" x="253" y="-18" font-family="Courier,monospace" font-size="10.00" fill="#000000"> &#160;store</text>
<text text-anchor="start" x="253" y="-7" font-family="Courier,monospace" font-size="10.00" fill="#000000"> &#160;br ...</text>
</g>
<!-- 0x5638249f0eb0&#45;&gt;0x5638249f16d0 -->
<g id="edge7" class="edge">
<title>0x5638249f0eb0&#45;&gt;0x5638249f16d0</title>
<path fill="none" stroke="#000000" d="M215.5105,-102.4895C224.7604,-93.2396 236.4111,-81.5889 247.5846,-70.4154"/>
<polygon fill="#000000" stroke="#000000" points="250.232,-72.7178 254.8282,-63.1718 245.2822,-67.768 250.232,-72.7178"/>
</g>
<!-- 0x5638249f16d0&#45;&gt;0x5638249f0000 -->
<g id="edge8" class="edge">
<title>0x5638249f16d0&#45;&gt;0x5638249f0000</title>
<path fill="none" stroke="#000000" d="M328.1336,-53.0945C351.2968,-68.3784 375.5,-91.3282 375.5,-120.5 375.5,-335 375.5,-335 375.5,-335 375.5,-365.18 355.638,-391.492 333.8894,-411.2569"/>
<polygon fill="#000000" stroke="#000000" points="331.4095,-408.7747 326.1475,-417.9705 335.9955,-414.0632 331.4095,-408.7747"/>
</g>
<!-- 0x5638249f1b50 -->
<g id="node8" class="node">
<title>0x5638249f1b50</title>
<path fill="#add8e6" stroke="#000000" d="M293,-246.5C293,-246.5 234,-246.5 234,-246.5 228,-246.5 222,-240.5 222,-234.5 222,-234.5 222,-195.5 222,-195.5 222,-189.5 228,-183.5 234,-183.5 234,-183.5 293,-183.5 293,-183.5 299,-183.5 305,-189.5 305,-195.5 305,-195.5 305,-234.5 305,-234.5 305,-240.5 299,-246.5 293,-246.5"/>
<text text-anchor="start" x="230" y="-234.5" font-family="Courier,monospace" font-size="10.00" fill="#000000">BB7:</text>
<text text-anchor="start" x="230" y="-223.5" font-family="Courier,monospace" font-size="10.00" fill="#000000"> &#160;%v = load</text>
<text text-anchor="start" x="230" y="-212.5" font-family="Courier,monospace" font-size="10.00" fill="#000000"> &#160;%v = sub</text>
<text text-anchor="start" x="230" y="-201.5" font-family="Courier,monospace" font-size="10.00" fill="#000000"> &#160;store</text>
<text text-anchor="start" x="230" y="-190.5" font-family="Courier,monospace" font-size="10.00" fill="#000000"> &#160;br ...</text>
</g>
<!-- 0x5638249f02c0&#45;&gt;0x5638249f1b50 -->
<g id="edge9" class="edge">
<title>0x5638249f02c0&#45;&gt;0x5638249f1b50</title>
<path fill="none" stroke="#00ff00" d="M275.2452,-308.9618C273.3293,-293.6342 270.8622,-273.8976 268.6841,-256.4727"/>
<polygon fill="#00ff00" stroke="#00ff00" points="272.1548,-256.0197 267.4414,-246.531 265.2088,-256.888 272.1548,-256.0197"/>
<text text-anchor="middle" x="274.5" y="-272.8" font-family="Courier,monospace" font-size="9.00" fill="#000000">T</text>
</g>
<!-- 0x5638249f1ba0 -->
<g id="node9" class="node">
<title>0x5638249f1ba0</title>
<path fill="#f08080" stroke="#000000" d="M327,-141C327,-141 268,-141 268,-141 262,-141 256,-135 256,-129 256,-129 256,-112 256,-112 256,-106 262,-100 268,-100 268,-100 327,-100 327,-100 333,-100 339,-106 339,-112 339,-112 339,-129 339,-129 339,-135 333,-141 327,-141"/>
<text text-anchor="start" x="264" y="-129" font-family="Courier,monospace" font-size="10.00" fill="#000000">BB8:</text>
<text text-anchor="start" x="264" y="-118" font-family="Courier,monospace" font-size="10.00" fill="#000000"> &#160;%v = load</text>
<text text-anchor="start" x="264" y="-107" font-family="Courier,monospace" font-size="10.00" fill="#000000"> &#160;ret %54</text>
</g>
<!-- 0x5638249f02c0&#45;&gt;0x5638249f1ba0 -->
<g id="edge10" class="edge">
<title>0x5638249f02c0&#45;&gt;0x5638249f1ba0</title>
<path fill="none" stroke="#ff0000" d="M292.6614,-308.9542C300.5078,-293.0188 309.4704,-271.9267 313.5,-252 320.0189,-219.7636 317.9493,-210.5865 313.5,-178 312.2809,-169.0712 310.0435,-159.5729 307.6205,-150.9225"/>
<polygon fill="#ff0000" stroke="#ff0000" points="310.9468,-149.8289 304.7405,-141.2422 304.2374,-151.825 310.9468,-149.8289"/>
<text text-anchor="middle" x="321.5" y="-212.8" font-family="Courier,monospace" font-size="9.00" fill="#000000">F</text>
</g>
<!-- 0x5638249f1b50&#45;&gt;0x5638249f1ba0 -->
<g id="edge11" class="edge">
<title>0x5638249f1b50&#45;&gt;0x5638249f1ba0</title>
<path fill="none" stroke="#000000" d="M274.9161,-183.27C278.7172,-172.7052 282.9372,-160.976 286.6909,-150.543"/>
<polygon fill="#000000" stroke="#000000" points="290.0258,-151.6123 290.1179,-141.0178 283.4391,-149.2424 290.0258,-151.6123"/>
</g>
</g>
</svg>
