<?xml version="1.0" encoding="UTF-8" standalone="no"?>
<!DOCTYPE svg PUBLIC "-//W3C//DTD SVG 1.1//EN"
 "http://www.w3.org/Graphics/SVG/1.1/DTD/svg11.dtd">
<!-- Generated by graphviz version 2.40.1 (0)
 -->
<!-- Title: CFG of seed_tasks Pages: 1 -->
<svg width="226pt" height="402pt"
 viewBox="0.00 0.00 226.00 402.00" xmlns="http://www.w3.org/2000/svg" xmlns:xlink="http://www.w3.org/1999/xlink">
<g id="graph0" class="graph" transform="scale(1 1) rotate(0) translate(4 398)">
<title>CFG of seed_tasks</title>
<polygon fill="#ffffff" stroke="transparent" points="-4,4 -4,-398 222,-398 222,4 -4,4"/>
<!-- 0x5638249e9fa0 -->
<g id="node1" class="node">
<title>0x5638249e9fa0</title>
<path fill="#90ee90" stroke="#000000" stroke-width="2" d="M191,-394C191,-394 114,-394 114,-394 108,-394 102,-388 102,-382 102,-382 102,-332 102,-332 102,-326 108,-320 114,-320 114,-320 191,-320 191,-320 197,-320 203,-326 203,-332 203,-332 203,-382 203,-382 203,-388 197,-394 191,-394"/>
<text text-anchor="start" x="110" y="-382" font-family="Courier,monospace" font-size="10.00" fill="#000000">entry:</text>
<text text-anchor="start" x="110" y="-371" font-family="Courier,monospace" font-size="10.00" fill="#000000"> &#160;%v = alloca</text>
<text text-anchor="start" x="110" y="-360" font-family="Courier,monospace" font-size="10.00" fill="#000000"> &#160;%v = alloca</text>
<text text-anchor="start" x="110" y="-349" font-family="Courier,monospace" font-size="10.00" fill="#000000"> &#160;%v = alloca</text>
<text text-anchor="start" x="110" y="-338" font-family="Courier,monospace" font-size="10.00" fill="#000000"> &#160;... (3 more)</text>
<text text-anchor="start" x="110" y="-327" font-family="Courier,monospace" font-size="10.00" fill="#000000"> &#160;br ...</text>
</g>
<!-- 0x5638249ea290 -->
<g id="node2" class="node">
<title>0x5638249ea290</title>
<path fill="#add8e6" stroke="#000000" d="M206,-283C206,-283 99,-283 99,-283 93,-283 87,-277 87,-271 87,-271 87,-232 87,-232 87,-226 93,-220 99,-220 99,-220 206,-220 206,-220 212,-220 218,-226 218,-232 218,-232 218,-271 218,-271 218,-277 212,-283 206,-283"/>
<text text-anchor="start" x="95" y="-271" font-family="Courier,monospace" font-size="10.00" fill="#000000">BB1:</text>
<text text-anchor="start" x="95" y="-260" font-family="Courier,monospace" font-size="10.00" fill="#000000"> &#160;%v = load</text>
<text text-anchor="start" x="95" y="-249" font-family="Courier,monospace" font-size="10.00" fill="#000000"> &#160;%v = load</text>
<text text-anchor="start" x="95" y="-238" font-family="Courier,monospace" font-size="10.00" fill="#000000"> &#160;%v = icmp ult</text>
<text text-anchor="start" x="95" y="-227" font-family="Courier,monospace" font-size="10.00" fill="#000000"> &#160;br %9 ? ... : ...</text>
</g>
<!-- 0x5638249e9fa0&#45;&gt;0x5638249ea290 -->
<g id="edge1" class="edge">
<title>0x5638249e9fa0&#45;&gt;0x5638249ea290</title>
<path fill="none" stroke="#000000" d="M152.5,-319.8046C152.5,-311.1915 152.5,-301.9707 152.5,-293.1795"/>
<polygon fill="#000000" stroke="#000000" points="156.0001,-293.1188 152.5,-283.1189 149.0001,-293.1189 156.0001,-293.1188"/>
</g>
<!-- 0x5638249ea140 -->
<g id="node3" class="node">
<title>0x5638249ea140</title>
<path fill="#add8e6" stroke="#000000" d="M95,-174C95,-174 12,-174 12,-174 6,-174 0,-168 0,-162 0,-162 0,-112 0,-112 0,-106 6,-100 12,-100 12,-100 95,-100 95,-100 101,-100 107,-106 107,-112 107,-112 107,-162 107,-162 107,-168 101,-174 95,-174"/>
<text text-anchor="start" x="8" y="-162" font-family="Courier,monospace" font-size="10.00" fill="#000000">BB2:</text>
<text text-anchor="start" x="8" y="-151" font-family="Courier,monospace" font-size="10.00" fill="#000000"> &#160;%v = load</text>
<text text-anchor="start" x="8" y="-140" font-family="Courier,monospace" font-size="10.00" fill="#000000"> &#160;%v = trunc</text>
<text text-anchor="start" x="8" y="-129" font-family="Courier,monospace" font-size="10.00" fill="#000000"> &#160;%v = load</text>
<text text-anchor="start" x="8" y="-118" font-family="Courier,monospace" font-size="10.00" fill="#000000"> &#160;... (22 more)</text>
<text text-anchor="start" x="8" y="-107" font-family="Courier,monospace" font-size="10.00" fill="#000000"> &#160;br ...</text>
</g>
<!-- 0x5638249ea290&#45;&gt;0x5638249ea140 -->
<g id="edge2" class="edge">
<title>0x5638249ea290&#45;&gt;0x5638249ea140</title>
<path fill="none" stroke="#00ff00" d="M125.1857,-219.9093C115.0429,-208.1785 103.3332,-194.6354 92.3564,-181.94"/>
<polygon fill="#00ff00" stroke="#00ff00" points="94.8252,-179.444 85.6371,-174.1687 89.5301,-184.0224 94.8252,-179.444"/>
<text text-anchor="middle" x="112.5" y="-194.8" font-family="Courier,monospace" font-size="9.00" fill="#000000">T</text>
</g>
<!-- 0x5638249ea550 -->
<g id="node5" class="node">
<title>0x5638249ea550</title>
<path fill="#f08080" stroke="#000000" d="M167.5,-155C167.5,-155 137.5,-155 137.5,-155 131.5,-155 125.5,-149 125.5,-143 125.5,-143 125.5,-131 125.5,-131 125.5,-125 131.5,-119 137.5,-119 137.5,-119 167.5,-119 167.5,-119 173.5,-119 179.5,-125 179.5,-131 179.5,-131 179.5,-143 179.5,-143 179.5,-149 173.5,-155 167.5,-155"/>
<text text-anchor="start" x="133.5" y="-140" font-family="Courier,monospace" font-size="10.00" fill="#000000">BB4:</text>
<text text-anchor="start" x="133.5" y="-129" font-family="Courier,monospace" font-size="10.00" fill="#000000"> &#160;ret</text>
</g>
<!-- 0x5638249ea290&#45;&gt;0x5638249ea550 -->
<g id="edge3" class="edge">
<title>0x5638249ea290&#45;&gt;0x5638249ea550</title>
<path fill="none" stroke="#ff0000" d="M152.5,-219.9093C152.5,-202.8592 152.5,-181.9806 152.5,-165.4409"/>
<polygon fill="#ff0000" stroke="#ff0000" points="156.0001,-165.2823 152.5,-155.2824 149.0001,-165.2824 156.0001,-165.2823"/>
<text text-anchor="middle" x="155.5" y="-194.8" font-family="Courier,monospace" font-size="9.00" fill="#000000">F</text>
</g>
<!-- 0x5638249eb3e0 -->
<g id="node4" class="node">
<title>0x5638249eb3e0</title>
<path fill="#add8e6" stroke="#000000" d="M160,-63C160,-63 101,-63 101,-63 95,-63 89,-57 89,-51 89,-51 89,-12 89,-12 89,-6 95,0 101,0 101,0 160,0 160,0 166,0 172,-6 172,-12 172,-12 172,-51 172,-51 172,-57 166,-63 160,-63"/>
<text text-anchor="start" x="97" y="-51" font-family="Courier,monospace" font-size="10.00" fill="#000000">BB3:</text>
<text text-anchor="start" x="97" y="-40" font-family="Courier,monospace" font-size="10.00" fill="#000000"> &#160;%v = load</text>
<text text-anchor="start" x="97" y="-29" font-family="Courier,monospace" font-size="10.00" fill="#000000"> &#160;%v = add</text>
<text text-anchor="start" x="97" y="-18" font-family="Courier,monospace" font-size="10.00" fill="#000000"> &#160;store</text>
<text text-anchor="start" x="97" y="-7" font-family="Courier,monospace" font-size="10.00" fill="#000000"> &#160;br ...</text>
</g>
<!-- 0x5638249ea140&#45;&gt;0x5638249eb3e0 -->
<g id="edge4" class="edge">
<title>0x5638249ea140&#45;&gt;0x5638249eb3e0</title>
<path fill="none" stroke="#000000" d="M80.6473,-99.8046C87.3437,-90.6298 94.5433,-80.7654 101.3311,-71.4652"/>
<polygon fill="#000000" stroke="#000000" points="104.3544,-73.2597 107.4227,-63.1189 98.7002,-69.1329 104.3544,-73.2597"/>
</g>
<!-- 0x5638249eb3e0&#45;&gt;0x5638249ea290 -->
<g id="edge5" class="edge">
<title>0x5638249eb3e0&#45;&gt;0x5638249ea290</title>
<path fill="none" stroke="#000000" d="M165.338,-63.2455C174.6886,-73.9068 183.5668,-86.5394 188.5,-100 199.8174,-130.8803 195.5948,-141.8855 188.5,-174 185.7747,-186.336 180.8791,-199.0405 175.5586,-210.5033"/>
<polygon fill="#000000" stroke="#000000" points="172.2605,-209.2818 171.0277,-219.8047 178.5536,-212.3473 172.2605,-209.2818"/>
</g>
</g>
</svg>
