<?xml version="1.0" encoding="UTF-8" standalone="no"?>
<!DOCTYPE svg PUBLIC "-//W3C//DTD SVG 1.1//EN"
 "http://www.w3.org/Graphics/SVG/1.1/DTD/svg11.dtd">
<!-- Generated by graphviz version 2.40.1 (0)
 -->
<!-- Title: CFG of sum_weights Pages: 1 -->
<svg width="273pt" height="402pt"
 viewBox="0.00 0.00 273.00 402.00" xmlns="http://www.w3.org/2000/svg" xmlns:xlink="http://www.w3.org/1999/xlink">
<g id="graph0" class="graph" transform="scale(1 1) rotate(0) translate(4 398)">
<title>CFG of sum_weights</title>
<polygon fill="#ffffff" stroke="transparent" points="-4,4 -4,-398 269,-398 269,4 -4,4"/>
<!-- 0x5638249f2120 -->
<g id="node1" class="node">
<title>0x5638249f2120</title>
<path fill="#90ee90" stroke="#000000" stroke-width="2" d="M235,-394C235,-394 158,-394 158,-394 152,-394 146,-388 146,-382 146,-382 146,-332 146,-332 146,-326 152,-320 158,-320 158,-320 235,-320 235,-320 241,-320 247,-326 247,-332 247,-332 247,-382 247,-382 247,-388 241,-394 235,-394"/>
<text text-anchor="start" x="154" y="-382" font-family="Courier,monospace" font-size="10.00" fill="#000000">entry:</text>
<text text-anchor="start" x="154" y="-371" font-family="Courier,monospace" font-size="10.00" fill="#000000"> &#160;%v = alloca</text>
<text text-anchor="start" x="154" y="-360" font-family="Courier,monospace" font-size="10.00" fill="#000000"> &#160;%v = alloca</text>
<text text-anchor="start" x="154" y="-349" font-family="Courier,monospace" font-size="10.00" fill="#000000"> &#160;%v = alloca</text>
<text text-anchor="start" x="154" y="-338" font-family="Courier,monospace" font-size="10.00" fill="#000000"> &#160;... (5 more)</text>
<text text-anchor="start" x="154" y="-327" font-family="Courier,monospace" font-size="10.00" fill="#000000"> &#160;br ...</text>
</g>
<!-- 0x5638249f25f0 -->
<g id="node2" class="node">
<title>0x5638249f25f0</title>
<path fill="#add8e6" stroke="#000000" d="M253,-283C253,-283 140,-283 140,-283 134,-283 128,-277 128,-271 128,-271 128,-232 128,-232 128,-226 134,-220 140,-220 140,-220 253,-220 253,-220 259,-220 265,-226 265,-232 265,-232 265,-271 265,-271 265,-277 259,-283 253,-283"/>
<text text-anchor="start" x="136" y="-271" font-family="Courier,monospace" font-size="10.00" fill="#000000">BB1:</text>
<text text-anchor="start" x="136" y="-260" font-family="Courier,monospace" font-size="10.00" fill="#000000"> &#160;%v = load</text>
<text text-anchor="start" x="136" y="-249" font-family="Courier,monospace" font-size="10.00" fill="#000000"> &#160;%v = load</text>
<text text-anchor="start" x="136" y="-238" font-family="Courier,monospace" font-size="10.00" fill="#000000"> &#160;%v = icmp ult</text>
<text text-anchor="start" x="136" y="-227" font-family="Courier,monospace" font-size="10.00" fill="#000000"> &#160;br %10 ? ... : ...</text>
</g>
<!-- 0x5638249f2120&#45;&gt;0x5638249f25f0 -->
<g id="edge1" class="edge">
<title>0x5638249f2120&#45;&gt;0x5638249f25f0</title>
<path fill="none" stroke="#000000" d="M196.5,-319.8046C196.5,-311.1915 196.5,-301.9707 196.5,-293.1795"/>
<polygon fill="#000000" stroke="#000000" points="200.0001,-293.1188 196.5,-283.1189 193.0001,-293.1189 200.0001,-293.1188"/>
</g>
<!-- 0x5638249f2280 -->
<g id="node3" class="node">
<title>0x5638249f2280</title>
<path fill="#add8e6" stroke="#000000" d="M125,-174C125,-174 12,-174 12,-174 6,-174 0,-168 0,-162 0,-162 0,-112 0,-112 0,-106 6,-100 12,-100 12,-100 125,-100 125,-100 131,-100 137,-106 137,-112 137,-112 137,-162 137,-162 137,-168 131,-174 125,-174"/>
<text text-anchor="start" x="8" y="-162" font-family="Courier,monospace" font-size="10.00" fill="#000000">BB2:</text>
<text text-anchor="start" x="8" y="-151" font-family="Courier,monospace" font-size="10.00" fill="#000000"> &#160;%v = load</text>
<text text-anchor="start" x="8" y="-140" font-family="Courier,monospace" font-size="10.00" fill="#000000"> &#160;%v = load</text>
<text text-anchor="start" x="8" y="-129" font-family="Courier,monospace" font-size="10.00" fill="#000000"> &#160;%v = getelementptr</text>
<text text-anchor="start" x="8" y="-118" font-family="Courier,monospace" font-size="10.00" fill="#000000"> &#160;... (5 more)</text>
<text text-anchor="start" x="8" y="-107" font-family="Courier,monospace" font-size="10.00" fill="#000000"> &#160;br ...</text>
</g>
<!-- 0x5638249f25f0&#45;&gt;0x5638249f2280 -->
<g id="edge2" class="edge">
<title>0x5638249f25f0&#45;&gt;0x5638249f2280</title>
<path fill="none" stroke="#00ff00" d="M161.1846,-219.9093C147.6995,-207.8465 132.0722,-193.8673 117.536,-180.8642"/>
<polygon fill="#00ff00" stroke="#00ff00" points="119.8377,-178.2272 110.051,-174.1687 115.1707,-183.4444 119.8377,-178.2272"/>
<text text-anchor="middle" x="143.5" y="-194.8" font-family="Courier,monospace" font-size="9.00" fill="#000000">T</text>
</g>
<!-- 0x5638249f28b0 -->
<g id="node5" class="node">
<title>0x5638249f28b0</title>
<path fill="#f08080" stroke="#000000" d="M226,-157.5C226,-157.5 167,-157.5 167,-157.5 161,-157.5 155,-151.5 155,-145.5 155,-145.5 155,-128.5 155,-128.5 155,-122.5 161,-116.5 167,-116.5 167,-116.5 226,-116.5 226,-116.5 232,-116.5 238,-122.5 238,-128.5 238,-128.5 238,-145.5 238,-145.5 238,-151.5 232,-157.5 226,-157.5"/>
<text text-anchor="start" x="163" y="-145.5" font-family="Courier,monospace" font-size="10.00" fill="#000000">BB4:</text>
<text text-anchor="start" x="163" y="-134.5" font-family="Courier,monospace" font-size="10.00" fill="#000000"> &#160;%v = load</text>
<text text-anchor="start" x="163" y="-123.5" font-family="Courier,monospace" font-size="10.00" fill="#000000"> &#160;ret %23</text>
</g>
<!-- 0x5638249f25f0&#45;&gt;0x5638249f28b0 -->
<g id="edge3" class="edge">
<title>0x5638249f25f0&#45;&gt;0x5638249f28b0</title>
<path fill="none" stroke="#ff0000" d="M196.5,-219.9093C196.5,-203.6193 196.5,-183.8348 196.5,-167.6784"/>
<polygon fill="#ff0000" stroke="#ff0000" points="200.0001,-167.6584 196.5,-157.6584 193.0001,-167.6585 200.0001,-167.6584"/>
<text text-anchor="middle" x="199.5" y="-194.8" font-family="Courier,monospace" font-size="9.00" fill="#000000">F</text>
</g>
<!-- 0x5638249f2d60 -->
<g id="node4" class="node">
<title>0x5638249f2d60</title>
<path fill="#add8e6" stroke="#000000" d="M197,-63C197,-63 138,-63 138,-63 132,-63 126,-57 126,-51 126,-51 126,-12 126,-12 126,-6 132,0 138,0 138,0 197,0 197,0 203,0 209,-6 209,-12 209,-12 209,-51 209,-51 209,-57 203,-63 197,-63"/>
<text text-anchor="start" x="134" y="-51" font-family="Courier,monospace" font-size="10.00" fill="#000000">BB3:</text>
<text text-anchor="start" x="134" y="-40" font-family="Courier,monospace" font-size="10.00" fill="#000000"> &#160;%v = load</text>
<text text-anchor="start" x="134" y="-29" font-family="Courier,monospace" font-size="10.00" fill="#000000"> &#160;%v = add</text>
<text text-anchor="start" x="134" y="-18" font-family="Courier,monospace" font-size="10.00" fill="#000000"> &#160;store</text>
<text text-anchor="start" x="134" y="-7" font-family="Courier,monospace" font-size="10.00" fill="#000000"> &#160;br ...</text>
</g>
<!-- 0x5638249f2280&#45;&gt;0x5638249f2d60 -->
<g id="edge4" class="edge">
<title>0x5638249f2280&#45;&gt;0x5638249f2d60</title>
<path fill="none" stroke="#000000" d="M103.4037,-99.8046C112.2769,-90.3489 121.8372,-80.1608 130.797,-70.6128"/>
<polygon fill="#000000" stroke="#000000" points="133.5386,-72.806 137.8292,-63.1189 128.4341,-68.016 133.5386,-72.806"/>
</g>
<!-- 0x5638249f2d60&#45;&gt;0x5638249f25f0 -->
<g id="edge5" class="edge">
<title>0x5638249f2d60&#45;&gt;0x5638249f25f0</title>
<path fill="none" stroke="#000000" d="M209.3648,-56.359C224.2881,-67.6232 239.3967,-82.3935 247.5,-100 261.2505,-129.8764 256.9365,-142.494 247.5,-174 243.5964,-187.0332 236.7164,-199.9031 229.2491,-211.2986"/>
<polygon fill="#000000" stroke="#000000" points="226.2507,-209.4818 223.464,-219.7036 232.0168,-213.4507 226.2507,-209.4818"/>
</g>
</g>
</svg>
